<svg width="639" height="127" viewBox="0 0 639 127" fill="none" xmlns="http://www.w3.org/2000/svg">
<path d="M93.3772 41.48C93.3772 48.28 91.6172 54.52 88.0972 60.2C84.5772 65.88 79.4572 70.52 72.7372 74.12C66.0172 77.72 58.0172 79.84 48.7372 80.48L43.5772 109.4C41.5772 120.52 36.1372 126.08 27.2572 126.08C22.3772 126.08 17.8572 124.64 13.6972 121.76C9.61719 118.88 6.33719 114.48 3.85719 108.56C1.37719 102.64 0.137188 95.36 0.137188 86.72C0.137188 70.48 2.73719 56.72 7.93719 45.44C13.2172 34.08 20.2572 25.6 29.0572 20C37.9372 14.32 47.6972 11.48 58.3372 11.48C65.8572 11.48 72.2172 12.8 77.4172 15.44C82.6972 18.08 86.6572 21.68 89.2972 26.24C92.0172 30.72 93.3772 35.8 93.3772 41.48ZM50.8972 68.12C67.2972 66.04 75.4972 57.52 75.4972 42.56C75.4972 37.28 73.7372 33 70.2172 29.72C66.7772 26.36 61.4172 24.68 54.1372 24.68C45.8972 24.68 38.6972 27.28 32.5372 32.48C26.4572 37.68 21.7372 44.92 18.3772 54.2C15.0972 63.4 13.4572 73.92 13.4572 85.76C13.4572 90.72 13.9372 95.12 14.8972 98.96C15.9372 102.8 17.2172 105.8 18.7372 107.96C20.3372 110.04 21.8572 111.08 23.2972 111.08C25.2972 111.08 26.8172 108.32 27.8572 102.8L31.8172 80.12C28.6972 79.64 27.3372 79.44 27.7372 79.52C25.3372 79.12 23.7772 78.4 23.0572 77.36C22.3372 76.24 21.9772 74.84 21.9772 73.16C21.9772 71.4 22.4572 70 23.4172 68.96C24.4572 67.92 25.8572 67.4 27.6172 67.4C28.4172 67.4 29.0172 67.44 29.4172 67.52C31.3372 67.84 32.8172 68.04 33.8572 68.12C34.8972 61.88 36.3772 53.52 38.2972 43.04C38.7772 40.32 39.8572 38.4 41.5372 37.28C43.2972 36.08 45.3372 35.48 47.6572 35.48C50.2972 35.48 52.1772 36 53.2972 37.04C54.4972 38 55.0972 39.56 55.0972 41.72C55.0972 43 55.0172 44.04 54.8572 44.84L50.8972 68.12ZM144.483 86.24C145.523 86.24 146.323 86.72 146.883 87.68C147.523 88.64 147.843 89.96 147.843 91.64C147.843 94.84 147.083 97.32 145.563 99.08C142.603 102.68 138.403 106 132.963 109.04C127.603 112.08 121.843 113.6 115.683 113.6C107.283 113.6 100.763 111.32 96.1231 106.76C91.4831 102.2 89.1631 95.96 89.1631 88.04C89.1631 82.52 90.3231 77.4 92.6431 72.68C94.9631 67.88 98.1631 64.08 102.243 61.28C106.403 58.48 111.083 57.08 116.283 57.08C120.923 57.08 124.643 58.48 127.443 61.28C130.243 64 131.643 67.72 131.643 72.44C131.643 77.96 129.643 82.72 125.643 86.72C121.723 90.64 115.043 93.76 105.603 96.08C107.603 99.76 111.403 101.6 117.003 101.6C120.603 101.6 124.683 100.36 129.243 97.88C133.883 95.32 137.883 92 141.243 87.92C142.203 86.8 143.283 86.24 144.483 86.24ZM114.243 68.84C111.283 68.84 108.763 70.56 106.683 74C104.683 77.44 103.683 81.6 103.683 86.48V86.72C108.403 85.6 112.123 83.92 114.843 81.68C117.563 79.44 118.923 76.84 118.923 73.88C118.923 72.36 118.483 71.16 117.603 70.28C116.803 69.32 115.683 68.84 114.243 68.84ZM191.593 86.24C192.633 86.24 193.433 86.72 193.992 87.68C194.633 88.64 194.953 89.96 194.953 91.64C194.953 94.84 194.193 97.32 192.673 99.08C189.233 103.32 185.473 106.8 181.393 109.52C177.313 112.24 172.633 113.6 167.353 113.6C151.033 113.6 142.873 102.12 142.873 79.16C142.873 75.64 142.993 72.08 143.233 68.48H138.553C136.153 68.48 134.513 68.04 133.633 67.16C132.833 66.28 132.433 64.88 132.433 62.96C132.433 58.48 134.233 56.24 137.833 56.24H144.673C146.033 47.44 148.113 39.4 150.913 32.12C153.713 24.84 157.073 19.04 160.993 14.72C164.993 10.4 169.273 8.24 173.833 8.24C177.193 8.24 179.833 9.72 181.753 12.68C183.673 15.64 184.633 19.36 184.633 23.84C184.633 36.24 179.433 47.04 169.033 56.24H182.473C183.753 56.24 184.673 56.52 185.233 57.08C185.793 57.64 186.073 58.68 186.073 60.2C186.073 65.72 181.553 68.48 172.513 68.48H157.873C157.713 72.48 157.633 75.6 157.633 77.84C157.633 86.16 158.593 92 160.513 95.36C162.513 98.72 165.633 100.4 169.873 100.4C173.313 100.4 176.353 99.36 178.993 97.28C181.633 95.2 184.753 92.08 188.353 87.92C189.313 86.8 190.393 86.24 191.593 86.24ZM170.593 19.76C169.393 19.76 168.033 21.28 166.513 24.32C165.073 27.28 163.673 31.44 162.312 36.8C161.033 42.08 159.953 47.96 159.073 54.44C163.793 50.36 167.313 45.8 169.633 40.76C172.033 35.64 173.233 31 173.233 26.84C173.233 22.12 172.353 19.76 170.593 19.76ZM199.942 113.6C194.982 113.6 191.022 111.8 188.062 108.2C185.102 104.6 183.622 99.88 183.622 94.04C183.622 87.64 185.102 81.6 188.062 75.92C191.022 70.16 194.942 65.56 199.822 62.12C204.782 58.6 210.022 56.84 215.542 56.84C217.302 56.84 218.462 57.2 219.022 57.92C219.662 58.56 220.182 59.76 220.582 61.52C222.262 61.2 224.022 61.04 225.862 61.04C229.782 61.04 231.742 62.44 231.742 65.24C231.742 66.92 231.142 70.92 229.942 77.24C228.102 86.44 227.182 92.84 227.182 96.44C227.182 97.64 227.462 98.6 228.022 99.32C228.662 100.04 229.462 100.4 230.422 100.4C231.942 100.4 233.782 99.44 235.942 97.52C238.102 95.52 241.022 92.32 244.702 87.92C245.662 86.8 246.742 86.24 247.942 86.24C248.982 86.24 249.782 86.72 250.342 87.68C250.982 88.64 251.302 89.96 251.302 91.64C251.302 94.84 250.542 97.32 249.022 99.08C245.742 103.16 242.262 106.6 238.582 109.4C234.902 112.2 231.342 113.6 227.902 113.6C225.262 113.6 222.822 112.72 220.582 110.96C218.422 109.12 216.782 106.64 215.662 103.52C211.502 110.24 206.262 113.6 199.942 113.6ZM204.262 101.48C206.022 101.48 207.702 100.44 209.302 98.36C210.902 96.28 212.062 93.52 212.782 90.08L217.222 68C213.862 68.08 210.742 69.36 207.862 71.84C205.062 74.24 202.822 77.44 201.142 81.44C199.462 85.44 198.622 89.68 198.622 94.16C198.622 96.64 199.102 98.48 200.062 99.68C201.102 100.88 202.502 101.48 204.262 101.48ZM276.229 96.08C277.109 95.28 277.989 94.88 278.869 94.88C279.829 94.88 280.589 95.44 281.149 96.56C281.789 97.6 282.109 98.88 282.109 100.4C282.109 103.76 280.909 106.44 278.509 108.44C274.349 111.88 269.629 113.6 264.349 113.6C256.749 113.6 251.189 110.44 247.669 104.12C244.149 97.72 242.389 89.4 242.389 79.16C242.389 69.4 243.629 58.28 246.109 45.8C248.669 33.32 252.389 22.6 257.269 13.64C262.229 4.67999 268.109 0.199993 274.909 0.199993C278.749 0.199993 281.749 1.99999 283.909 5.6C286.149 9.12 287.269 14.2 287.269 20.84C287.269 30.36 284.629 41.4 279.349 53.96C274.149 66.52 267.029 78.92 257.989 91.16C258.549 94.44 259.549 96.8 260.989 98.24C262.429 99.68 264.389 100.4 266.869 100.4C268.229 100.4 269.749 100 271.429 99.2C273.189 98.4 274.789 97.36 276.229 96.08ZM272.269 12.08C270.429 12.08 268.349 15.4 266.029 22.04C263.709 28.68 261.669 36.92 259.909 46.76C258.149 56.6 257.189 66.04 257.029 75.08C262.709 65.72 267.229 56.36 270.589 47C273.949 37.56 275.629 28.96 275.629 21.2C275.629 15.12 274.509 12.08 272.269 12.08ZM418.167 13.52C420.407 13.84 421.927 14.52 422.727 15.56C423.607 16.6 424.047 17.96 424.047 19.64C424.047 25.16 421.087 27.72 415.167 27.32L410.967 26.96C406.247 26.56 401.527 26.24 396.807 26C392.167 25.76 387.287 25.64 382.167 25.64H376.767C375.807 37.48 374.807 48.28 373.767 58.04L394.407 57.68C397.367 57.68 399.327 58.2 400.287 59.24C401.327 60.28 401.847 61.68 401.847 63.44C401.847 66.16 401.047 68.32 399.447 69.92C397.847 71.44 395.567 72.2 392.607 72.2H372.087L371.367 77.36C369.687 90.56 366.087 99.96 360.567 105.56C355.127 111.16 347.607 113.96 338.007 113.96C332.567 113.96 327.567 112.8 323.007 110.48C318.447 108.08 315.087 105.2 312.927 101.84C312.047 100.48 311.607 98.84 311.607 96.92C311.607 95 312.047 93.32 312.927 91.88C313.887 90.44 315.047 89.72 316.407 89.72C317.367 89.72 318.287 90.04 319.167 90.68C320.127 91.32 321.327 92.56 322.767 94.4C326.607 99.44 331.367 101.96 337.047 101.96C341.607 101.96 345.407 100.12 348.447 96.44C351.567 92.68 353.567 86.8 354.447 78.8L355.167 72.2H349.407C347.567 72.2 345.967 71.68 344.607 70.64C343.327 69.6 342.687 68.12 342.687 66.2C342.687 63.72 343.327 61.84 344.607 60.56C345.887 59.2 347.767 58.52 350.247 58.52C352.487 58.52 354.687 58.48 356.847 58.4C357.807 49.6 358.847 38.92 359.967 26.36C351.327 27.16 345.247 28.56 341.727 30.56C338.207 32.56 336.447 35.52 336.447 39.44C336.447 42.16 337.247 44.76 338.847 47.24C339.327 47.96 339.567 48.68 339.567 49.4C339.567 50.84 338.767 52.12 337.167 53.24C335.567 54.28 333.767 54.8 331.767 54.8C329.607 54.8 327.767 54.16 326.247 52.88C325.287 52.08 324.367 50.44 323.487 47.96C322.607 45.48 322.167 42.72 322.167 39.68C322.167 29.76 327.247 22.56 337.407 18.08C347.647 13.6 362.567 11.36 382.167 11.36C395.767 11.36 407.767 12.08 418.167 13.52ZM448.396 86.24C449.436 86.24 450.236 86.72 450.796 87.68C451.436 88.64 451.756 89.96 451.756 91.64C451.756 94.84 450.996 97.32 449.476 99.08C446.036 103.32 442.276 106.8 438.196 109.52C434.196 112.24 429.636 113.6 424.516 113.6C417.476 113.6 412.236 110.4 408.796 104C405.436 97.6 403.756 89.32 403.756 79.16C403.756 69.4 404.996 58.28 407.476 45.8C410.036 33.32 413.756 22.6 418.636 13.64C423.596 4.67999 429.476 0.199993 436.276 0.199993C440.116 0.199993 443.116 1.99999 445.276 5.6C447.516 9.12 448.636 14.2 448.636 20.84C448.636 30.36 445.996 41.4 440.716 53.96C435.436 66.52 428.276 78.96 419.236 91.28C419.796 94.56 420.716 96.92 421.996 98.36C423.276 99.72 424.956 100.4 427.036 100.4C430.316 100.4 433.196 99.48 435.676 97.64C438.156 95.72 441.316 92.48 445.156 87.92C446.116 86.8 447.196 86.24 448.396 86.24ZM433.636 12.08C431.796 12.08 429.716 15.4 427.396 22.04C425.076 28.68 423.036 36.92 421.276 46.76C419.516 56.6 418.556 66.04 418.396 75.08C424.076 65.72 428.596 56.36 431.956 47C435.316 37.56 436.996 28.96 436.996 21.2C436.996 15.12 435.876 12.08 433.636 12.08ZM503.257 76.16C504.297 76.16 505.097 76.68 505.657 77.72C506.217 78.76 506.497 80.08 506.497 81.68C506.497 85.52 505.337 87.8 503.017 88.52C498.217 90.2 492.937 91.16 487.177 91.4C485.657 98.12 482.657 103.52 478.177 107.6C473.697 111.6 468.617 113.6 462.937 113.6C458.137 113.6 454.017 112.44 450.577 110.12C447.217 107.8 444.657 104.72 442.897 100.88C441.137 97.04 440.257 92.88 440.257 88.4C440.257 82.32 441.417 76.92 443.737 72.2C446.057 67.4 449.257 63.68 453.337 61.04C457.417 58.32 461.937 56.96 466.897 56.96C472.977 56.96 477.857 59.08 481.537 63.32C485.297 67.48 487.497 72.64 488.137 78.8C491.897 78.56 496.377 77.76 501.577 76.4C502.217 76.24 502.777 76.16 503.257 76.16ZM463.897 100.88C466.457 100.88 468.657 99.84 470.497 97.76C472.417 95.68 473.697 92.68 474.337 88.76C471.857 87.08 469.937 84.88 468.577 82.16C467.297 79.44 466.657 76.56 466.657 73.52C466.657 72.24 466.777 70.96 467.017 69.68H466.417C463.217 69.68 460.537 71.24 458.377 74.36C456.297 77.4 455.257 81.72 455.257 87.32C455.257 91.72 456.097 95.08 457.777 97.4C459.537 99.72 461.577 100.88 463.897 100.88ZM504.718 113.6C501.678 113.6 499.518 112 498.238 108.8C497.038 105.6 496.438 100.48 496.438 93.44C496.438 83.04 497.918 73.16 500.878 63.8C501.598 61.48 502.758 59.8 504.358 58.76C506.038 57.64 508.358 57.08 511.318 57.08C512.918 57.08 514.038 57.28 514.678 57.68C515.318 58.08 515.638 58.84 515.638 59.96C515.638 61.24 515.038 64.12 513.838 68.6C513.038 71.8 512.398 74.6 511.918 77C511.438 79.4 511.038 82.36 510.718 85.88C513.358 79 516.318 73.4 519.598 69.08C522.878 64.76 526.078 61.68 529.198 59.84C532.398 58 535.318 57.08 537.958 57.08C543.158 57.08 545.758 59.68 545.758 64.88C545.758 65.92 545.398 68.44 544.678 72.44C544.038 75.64 543.718 77.64 543.718 78.44C543.718 81.24 544.718 82.64 546.718 82.64C548.958 82.64 551.838 80.88 555.358 77.36C556.398 76.32 557.478 75.8 558.598 75.8C559.638 75.8 560.438 76.28 560.997 77.24C561.638 78.12 561.958 79.32 561.958 80.84C561.958 83.8 561.158 86.12 559.558 87.8C557.318 90.12 554.678 92.12 551.638 93.8C548.678 95.4 545.518 96.2 542.158 96.2C537.918 96.2 534.678 95.12 532.438 92.96C530.278 90.8 529.198 87.88 529.198 84.2C529.198 83 529.318 81.8 529.558 80.6C529.718 79 529.798 77.92 529.798 77.36C529.798 76.08 529.358 75.44 528.478 75.44C527.278 75.44 525.678 76.8 523.678 79.52C521.758 82.16 519.838 85.68 517.918 90.08C515.998 94.48 514.438 99.12 513.238 104C512.358 107.76 511.318 110.32 510.118 111.68C508.998 112.96 507.198 113.6 504.718 113.6ZM604.327 86.24C605.367 86.24 606.167 86.72 606.727 87.68C607.367 88.64 607.687 89.96 607.687 91.64C607.687 94.84 606.927 97.32 605.407 99.08C602.447 102.68 598.247 106 592.807 109.04C587.447 112.08 581.687 113.6 575.527 113.6C567.127 113.6 560.607 111.32 555.967 106.76C551.327 102.2 549.007 95.96 549.007 88.04C549.007 82.52 550.167 77.4 552.487 72.68C554.807 67.88 558.007 64.08 562.087 61.28C566.247 58.48 570.927 57.08 576.127 57.08C580.767 57.08 584.487 58.48 587.287 61.28C590.087 64 591.487 67.72 591.487 72.44C591.487 77.96 589.487 82.72 585.487 86.72C581.567 90.64 574.887 93.76 565.447 96.08C567.447 99.76 571.247 101.6 576.847 101.6C580.447 101.6 584.527 100.36 589.087 97.88C593.727 95.32 597.727 92 601.087 87.92C602.047 86.8 603.127 86.24 604.327 86.24ZM574.087 68.84C571.127 68.84 568.607 70.56 566.527 74C564.527 77.44 563.527 81.6 563.527 86.48V86.72C568.247 85.6 571.967 83.92 574.687 81.68C577.407 79.44 578.767 76.84 578.767 73.88C578.767 72.36 578.327 71.16 577.447 70.28C576.647 69.32 575.527 68.84 574.087 68.84ZM620.236 116.24C616.076 116.24 612.876 115.28 610.636 113.36C608.476 111.44 607.396 109.28 607.396 106.88C607.396 104.8 608.156 103 609.676 101.48C611.196 99.96 613.436 99.2 616.396 99.2C617.436 99.2 618.636 99.32 619.996 99.56C621.436 99.72 622.516 99.84 623.236 99.92C623.156 97.84 622.676 95.88 621.796 94.04C620.996 92.2 619.956 90.44 618.676 88.76C617.396 87 616.196 85.48 615.076 84.2C612.596 88.92 610.116 92.84 607.636 95.96C605.236 99.08 602.596 102.04 599.716 104.84C598.276 106.28 596.756 107 595.156 107C593.876 107 592.836 106.56 592.036 105.68C591.236 104.72 590.836 103.56 590.836 102.2C590.836 100.6 591.396 99.12 592.516 97.76L594.076 95.84C598.476 90.4 601.796 85.92 604.036 82.4C605.476 80.08 606.916 77.32 608.356 74.12C609.876 70.92 611.836 66.56 614.236 61.04C615.756 57.52 618.916 55.76 623.716 55.76C625.956 55.76 627.516 55.96 628.396 56.36C629.276 56.76 629.716 57.4 629.716 58.28C629.716 58.76 629.556 59.52 629.236 60.56C628.916 61.6 628.476 62.64 627.916 63.68C626.476 66.56 625.756 69 625.756 71C625.756 72.2 626.156 73.52 626.956 74.96C627.836 76.4 629.156 78.2 630.916 80.36C633.476 83.72 635.396 86.6 636.676 89C638.036 91.32 638.716 93.88 638.716 96.68C638.716 100.04 637.916 103.24 636.316 106.28C634.796 109.24 632.636 111.64 629.836 113.48C627.036 115.32 623.836 116.24 620.236 116.24Z" fill="white"/>
</svg>
